PathFileType	4	(X/Y/Z)	C:\Users\WrightLab\Desktop\Jo\P3_12.trc
DataRate	CameraRate	NumFrames	NumMarkers	Units	OrigDataRate	OrigDataStartFrame	OrigNumFrames
100.00	100.00	       16	19	mm	100.00	371	       593
Frame#	Time	Headset_Front			Headset_Back			Headset_Left			Headset_Right			Left_Shoulder			Right_Shoulder			Sternum			C7			Left Elbow			Right Elbow			Left Wrist			Right Wrist			Left ASIS			Right ASIS			S2			Left Knee			Right Knee			Left Ankle			Right Ankle			
		X1	Y1	Z1	X2	Y2	Z2	X3	Y3	Z3	X4	Y4	Z4	X5	Y5	Z5	X6	Y6	Z6	X7	Y7	Z7	X8	Y8	Z8	X9	Y9	Z9	X10	Y10	Z10	X11	Y11	Z11	X12	Y12	Z12	X13	Y13	Z13	X14	Y14	Z14	X15	Y15	Z15	X16	Y16	Z16	X17	Y17	Z17	X18	Y18	Z18	X19	Y19	Z19	

371	3.700	-622.69312	1439.43542	-715.50073	-550.31183	1493.74255	-588.02856	-774.07703	1533.53455	-604.20807				-876.23669	1314.29102	-485.71362	-520.15607	1325.28430	-456.29434	-691.77344	1205.21497	-604.77783	-698.13110	1373.71497	-422.65198	-931.84100	978.63538	-487.80408	-436.41510	986.37445	-409.35071	-920.10724	800.08502	-596.39160	-403.70197	791.10114	-523.31433	-792.26459	836.83112	-582.15472	-538.49597	853.27386	-579.75427	-677.99750	918.13385	-364.73816	-829.60028	418.45520	-583.25281	-579.43073	421.16525	-563.82788	-797.43341	230.11278	-314.85126	-619.96985	88.74355	-510.32086	
372	3.710	-622.53339	1440.84778	-724.91583				-775.53577	1534.26331	-612.37476				-876.56171	1314.44543	-494.79645	-520.16101	1326.04895	-464.81357	-691.83594	1205.41357	-612.96796	-698.72949	1374.70398	-431.13428	-929.02686	977.61475	-496.53445	-433.46454	987.61346	-421.83890	-916.15179	799.47491	-604.41632	-401.47644	793.36621	-539.61023	-790.77740	837.87482	-590.79327	-537.75146	852.47266	-584.61139	-678.39813	918.78229	-372.59879	-829.81989	422.24130	-603.31378	-579.36829	420.72049	-566.47668	-796.03247	226.99019	-338.10443	-619.81610	88.65804	-511.22305	
373	3.720	-622.72723	1441.13660	-732.79254	-550.22491	1494.61316	-603.76587	-774.06689	1534.80090	-620.92999				-876.58252	1314.79883	-503.98376	-520.30341	1326.75073	-473.49008	-691.65479	1206.10706	-621.69720	-698.52094	1374.95557	-439.57504	-927.41547	977.39099	-505.19745	-433.36847	987.38342	-433.54538	-912.20404	799.84473	-613.74829	-399.83694	796.68408	-555.74530	-789.36865	839.06512	-600.02008				-680.34753	919.20496	-381.20697	-827.76892	425.24152	-622.52393	-579.63495	420.13217	-570.03680	-797.25409	223.63728	-361.65399	-619.99573	89.09852	-511.92282	
374	3.730	-622.66632	1441.80542	-741.35028				-774.00946	1535.45398	-629.59778				-876.34119	1314.86340	-512.57605	-520.35150	1327.29944	-482.05301	-691.44952	1206.33655	-629.79224	-699.57196	1375.89392	-448.73804	-926.34912	977.77112	-513.68597	-431.01614	987.29242	-446.27643	-908.72784	799.59064	-621.59113	-397.69385	799.22095	-570.64532	-788.55701	841.13062	-608.36426				-681.91620	920.43011	-388.74689	-823.13153	427.25085	-642.82941	-579.28546	420.14383	-572.81519	-798.29315	218.32164	-389.98276	-620.16583	89.23504	-512.19104	
375	3.740	-622.65619	1442.31616	-749.54419	-550.53577	1496.11243	-622.01294	-775.30267	1535.80481	-637.30963				-877.08685	1315.26794	-520.91010	-520.64325	1328.04089	-490.04004	-691.39185	1206.30994	-638.24500	-700.04132	1375.73328	-456.59680	-925.17688	977.55414	-521.53241	-428.30838	988.76221	-458.04077	-905.76880	799.57904	-630.00391	-395.42737	802.38245	-587.41351	-787.29993	841.65936	-617.89551	-535.09656	853.30817	-604.92145	-682.76166	921.01550	-397.64130	-820.62817	430.28671	-661.45038	-579.35004	419.40289	-575.41797	-797.79114	214.88797	-411.70581	-620.21423	89.62376	-512.85480	
376	3.750	-622.69482	1442.72217	-757.98773				-774.05310	1536.07813	-645.35815				-877.71808	1315.67249	-530.10925	-521.41943	1328.08765	-497.76578	-691.08746	1206.92090	-646.61743	-700.00348	1376.13965	-465.43445	-924.05585	977.62811	-529.94104	-426.84338	988.68073	-469.57120	-903.02667	799.68896	-638.35992	-394.20825	805.52216	-602.59735	-786.33307	842.51727	-626.84338	-534.28583	853.94281	-613.42334	-684.22351	920.99182	-405.48224	-818.04218	433.41348	-679.85583	-578.94843	419.44336	-578.73431	-797.74457	209.62889	-434.63016	-620.53912	89.76411	-513.14404	
377	3.760	-622.55713	1443.44373	-766.13538				-775.46875	1536.77100	-653.84320				-877.48438	1315.81567	-538.82758	-521.15851	1329.31299	-505.77002	-690.77405	1207.08203	-654.27026	-699.42627	1375.70532	-473.56516	-922.79022	977.45044	-537.99292	-425.38690	989.58960	-480.96011	-900.86053	800.01038	-646.66138	-392.09482	808.43726	-617.79541	-785.37646	843.40771	-634.32477				-684.95288	920.79315	-413.56647	-815.03857	436.45273	-696.64349	-579.36206	418.70660	-580.93945	-798.35083	205.23738	-453.15454	-621.34760	90.33493	-514.19293	
378	3.770	-622.47260	1443.95837	-774.38348	-550.58057	1496.84485	-646.07861	-774.02106	1536.78931	-661.82635				-877.78491	1316.01343	-547.39575	-521.39636	1329.36414	-513.33643	-690.31354	1207.42505	-662.59283	-700.32526	1375.89368	-482.34018	-921.56604	977.29810	-545.14703	-423.98947	989.89050	-493.14703	-899.10999	800.46832	-655.08246	-389.81696	811.85767	-633.28900	-784.51239	843.68103	-642.70227				-686.45685	921.03723	-421.09018	-810.91058	438.36346	-712.88324	-578.80475	418.65143	-584.85767	-797.39453	198.00229	-478.55832	-621.37775	90.27517	-514.13922	
379	3.780	-622.41608	1444.39636	-782.61584				-774.07288	1536.87073	-669.90967				-877.65540	1316.25049	-556.44348	-521.91858	1330.11194	-521.89996	-689.95642	1207.36255	-670.97601	-701.11523	1376.37158	-490.38773	-921.47388	976.48273	-552.61237	-422.90723	989.94781	-503.49542	-898.00598	800.75244	-663.19403	-388.09552	815.60883	-648.55267	-783.83502	843.76892	-651.48627				-687.66339	921.36609	-429.23267				-579.21606	418.06036	-586.81879	-797.22046	191.26260	-506.21796	-621.41699	90.28069	-514.55591	
380	3.790	-622.43524	1444.30457	-790.34912				-774.05646	1537.09155	-677.96497				-878.42743	1316.30457	-565.56561	-521.99780	1330.05762	-529.15521	-689.54480	1207.32007	-678.36353	-701.32330	1375.93396	-498.91452	-921.40234	977.77979	-560.59363	-421.28757	991.12079	-515.08026	-897.40717	800.97565	-671.49384	-386.53680	819.49213	-663.87079	-783.04919	844.31714	-660.38666				-688.63190	920.48535	-437.71902	-805.46906	444.39334	-745.66479	-578.63281	418.24597	-590.11633	-796.78229	183.85234	-533.94177	-621.76434	90.62780	-514.63007	
381	3.800	-622.31360	1444.64758	-798.51550				-774.13873	1537.01331	-686.22858				-878.42877	1316.17517	-574.34015	-522.18182	1330.48743	-536.84637	-689.07806	1207.57324	-687.18597	-700.65405	1375.48779	-506.35953	-921.58386	977.48853	-567.76752	-419.18500	991.74896	-526.20502	-897.27258	801.13904	-679.69336	-385.58118	822.73181	-678.69031	-782.92902	843.63293	-668.91766	-530.76813	853.11505	-646.84344	-689.83759	920.69342	-445.81354	-802.32983	446.77942	-759.89020	-578.49170	417.98642	-592.24384	-796.62897	174.92203	-560.99658	-621.60388	90.61668	-514.81024	
382	3.810	-622.17322	1445.12146	-806.92554				-774.17950	1537.10364	-694.27484				-878.26959	1316.10376	-583.20514	-522.76990	1330.39319	-544.43115	-688.73767	1207.28284	-695.72211	-703.14996	1376.16821	-516.32245	-921.21948	977.07196	-575.32953	-417.90222	991.51691	-536.67328	-897.63763	801.19995	-687.92963	-383.98218	826.84094	-694.04572	-782.14996	844.11243	-677.70502	-530.24060	852.84033	-655.40912	-689.53320	920.47418	-453.37653	-799.55243	448.74161	-773.21094	-577.79596	417.94119	-595.27380	-795.99854	166.09702	-588.92346	-621.91852	90.89200	-515.10345	
383	3.820	-621.89075	1445.70508	-815.24146				-775.25549	1536.54419	-701.94904				-878.43927	1315.76990	-592.31287	-523.09589	1330.33069	-552.96771	-688.29633	1206.91565	-703.80725	-702.07922	1375.27893	-524.28265	-922.45361	977.14484	-583.48517	-415.94958	992.31537	-547.66052	-898.12915	801.19470	-696.22552	-382.98477	829.79102	-707.96143	-781.77722	843.35687	-685.91193				-690.30261	920.46741	-462.15692	-796.98059	450.06989	-786.05646	-578.29163	417.46231	-597.52795	-795.70758	156.99414	-617.64386	-621.83496	91.97559	-515.49243	
384	3.830	-621.79773	1445.85730	-823.30066				-774.16278	1536.51697	-710.12762				-878.19189	1315.32751	-601.77612	-522.44971	1330.31628	-560.94250	-687.93048	1206.23145	-712.35266	-702.49457	1375.20435	-532.90387	-922.32477	976.47375	-591.34595	-415.04446	992.67487	-558.63727	-899.35040	801.10529	-705.13013	-381.90625	833.65411	-722.45245	-781.34357	842.84283	-694.66010	-529.69391	850.73486	-667.77271	-690.61151	920.52710	-468.33725	-796.78894	452.97177	-797.62439	-578.10547	417.52298	-600.49542	-796.76593	145.75104	-654.58112	-621.73895	92.08276	-515.77911	
385	3.840	-621.65985	1445.98083	-831.64331				-774.25519	1536.05200	-718.41150				-878.53857	1314.60266	-610.70270	-522.81097	1329.86169	-568.41907	-687.53845	1205.40723	-720.32159	-702.67542	1373.91943	-540.97516	-924.27924	976.77985	-599.00586	-413.14838	991.90973	-568.72778	-900.82263	800.39154	-712.71558	-380.97992	836.33350	-736.30981	-780.86017	842.10876	-702.96307				-690.88531	919.14905	-478.40750	-792.29541	451.72754	-808.53589	-577.93298	416.83972	-603.09753	-794.62323	136.87595	-683.53894	-621.86633	92.13683	-516.80200	
386	3.850	-621.43719	1446.33691	-839.85162				-774.33588	1535.31201	-725.86932				-878.20807	1313.95691	-619.65857	-523.18970	1329.29236	-576.58014	-687.23541	1204.44470	-728.80353	-702.02716	1372.53345	-549.45221	-924.96423	976.31659	-607.44049	-411.82724	992.27106	-579.55554	-902.58752	799.62329	-720.83740	-380.93564	839.29407	-749.34991	-780.24829	841.23688	-711.18823	-529.12439	849.51514	-683.08569	-690.07843	919.58325	-484.82083	-790.55811	450.92218	-817.78955	-577.36597	415.78543	-606.42084	-795.69537	129.11693	-711.57593	-622.03937	92.00489	-517.16736	
